<svg width="320" height="137" viewBox="0 0 320 137" fill="none" xmlns="http://www.w3.org/2000/svg">
<path fill-rule="evenodd" clip-rule="evenodd" d="M188.434 118.919H198.364V28.1289H188.434V118.919Z" fill="#004E78"/>
<path fill-rule="evenodd" clip-rule="evenodd" d="M184.047 108.989H172.956C167.282 108.989 167.153 107.7 167.153 101.767V28.1289H157.094V101.767C157.094 106.41 157.094 110.021 160.318 114.277C162.897 117.888 167.282 118.919 172.956 118.919H184.047V108.989Z" fill="#004E78"/>
<path fill-rule="evenodd" clip-rule="evenodd" d="M60.248 28.1289V103.831C60.248 119.457 71.597 121.262 76.368 121.262C80.624 121.262 85.0091 119.715 87.9751 116.727C92.1021 112.6 92.489 107.57 92.489 103.831V28.1289H82.5591V103.831C82.5591 105.507 82.5591 111.31 76.2401 111.31C70.1781 111.31 70.178 105.12 70.178 103.831V28.1289H60.248Z" fill="#004E78"/>
<path fill-rule="evenodd" clip-rule="evenodd" d="M263.262 118.941V43.2395C263.262 27.6134 274.61 25.8079 279.382 25.8079C283.638 25.8079 288.023 27.3554 290.989 30.3433C295.116 34.4701 295.503 39.4997 295.503 43.2395V118.941H285.572V43.2395C285.572 41.5631 285.572 35.7596 279.253 35.7596C273.192 35.7596 273.192 41.9498 273.192 43.2395V118.941H263.262Z" fill="#004E78"/>
<path fill-rule="evenodd" clip-rule="evenodd" d="M0 96.6624L5.8249 105.948H14.3363V118.919H24.2665V105.948H37.0338V118.919H46.964V28.1289H37.0338V96.6624H24.2665V28.1289H14.3363V96.6624H0Z" fill="#004E78"/>
<path fill-rule="evenodd" clip-rule="evenodd" d="M98.5273 96.6625L104.352 105.948H112.864V118.919H122.794V105.948H134.917V118.919H144.847V44.1206C144.847 40.2516 144.847 36.2537 141.236 31.2242C137.496 26.3237 131.435 25.8079 128.984 25.8079C121.891 25.8079 112.864 30.3232 112.864 44.1206V96.6625H98.5273ZM122.794 96.6625V44.1206C122.794 41.1544 122.794 35.7379 128.855 35.7379C134.917 35.7379 134.917 41.0272 134.917 44.1206V96.6625H122.794Z" fill="#004E78"/>
<path fill-rule="evenodd" clip-rule="evenodd" d="M203.633 96.6625L209.458 105.948H217.969V118.919H227.9V105.948H240.022V118.919H249.952V44.1206C249.952 40.2516 249.952 36.2537 246.341 31.2242C242.601 26.3237 236.54 25.8079 234.09 25.8079C226.997 25.8079 217.969 30.3232 217.969 44.1206V96.6625H203.633ZM227.9 96.6625V44.1206C227.9 41.1544 227.9 35.7379 233.961 35.7379C240.022 35.7379 240.022 41.0272 240.022 44.1206V96.6625H227.9Z" fill="#004E78"/>
<path fill-rule="evenodd" clip-rule="evenodd" d="M180.615 12.7821L193.397 0L206.179 12.7821L193.397 25.5642L180.615 12.7821Z" fill="#00A0E3"/>
<path d="M112.863 128.366H114.682L118.479 133.281L122.276 128.366H124.156V136.722H122.227V130.922L118.528 135.715H118.16L114.584 131.02V136.722H112.863V128.366ZM128.355 136.722H126.487L131.231 128.366H133.074L137.903 136.722H135.777L134.77 134.953H129.326L128.355 136.722ZM130.149 133.429H133.959L132.054 130.086L130.149 133.429ZM147.607 131.438V129.791H142.249V135.248H147.607V133.429L149.524 133.834V135.075C149.524 135.444 149.467 135.739 149.352 135.96C149.238 136.181 149.082 136.347 148.885 136.458C148.689 136.569 148.459 136.64 148.197 136.673C147.935 136.706 147.656 136.722 147.362 136.722H142.065C141.713 136.722 141.424 136.673 141.199 136.575C140.974 136.476 140.795 136.341 140.664 136.169C140.533 135.997 140.443 135.796 140.394 135.567C140.345 135.338 140.32 135.096 140.32 134.842V130.246C140.32 129.861 140.363 129.548 140.449 129.306C140.535 129.064 140.664 128.874 140.836 128.735C141.008 128.595 141.226 128.499 141.488 128.446C141.75 128.393 142.057 128.366 142.409 128.366H147.3C147.783 128.366 148.17 128.405 148.461 128.483C148.752 128.561 148.973 128.673 149.125 128.821C149.276 128.968 149.377 129.142 149.426 129.343C149.475 129.544 149.5 129.767 149.5 130.013V131.168L147.607 131.438ZM153.293 128.366H155.222V131.672H161.403V128.366H163.333V136.722H161.403V133.195H155.222V136.722H153.293V128.366ZM167.224 128.366H169.154V136.722H167.224V128.366ZM173.045 128.366H174.36L181.217 134.08V128.366H182.937V136.722H181.622L174.765 130.983V136.722H173.045V128.366ZM186.829 128.366H195.492V129.791H188.758V131.696H192.703V133.195H188.758V135.211H195.554V136.722H186.829V128.366ZM205.086 133.638L208.723 136.722H206.13L202.751 133.638H201.006V136.722H199.076V128.366H206.191C206.814 128.366 207.291 128.487 207.623 128.728C207.955 128.97 208.121 129.406 208.121 130.037V132.04C208.121 132.36 208.07 132.624 207.967 132.833C207.865 133.042 207.723 133.206 207.543 133.324C207.363 133.443 207.156 133.525 206.923 133.57C206.689 133.615 206.445 133.638 206.191 133.638H205.086ZM205.54 132.139C205.679 132.139 205.798 132.135 205.897 132.126C205.995 132.118 206.075 132.096 206.136 132.059C206.198 132.022 206.241 131.96 206.265 131.874C206.29 131.788 206.302 131.672 206.302 131.524V130.455C206.302 130.299 206.29 130.177 206.265 130.086C206.241 129.996 206.2 129.929 206.142 129.883C206.085 129.839 206.007 129.812 205.909 129.804C205.811 129.795 205.688 129.791 205.54 129.791H201.006V132.139H205.54ZM216.498 136.722H214.568V132.95L210.218 128.366H212.823L215.674 131.573L218.55 128.366H220.811L216.498 132.95V136.722ZM233.538 133.638L237.175 136.722H234.582L231.203 133.638H229.458V136.722H227.529V128.366H234.644C235.266 128.366 235.744 128.487 236.075 128.728C236.407 128.97 236.573 129.406 236.573 130.037V132.04C236.573 132.36 236.522 132.624 236.419 132.833C236.317 133.042 236.176 133.206 235.995 133.324C235.815 133.443 235.609 133.525 235.375 133.57C235.141 133.615 234.898 133.638 234.644 133.638H233.538ZM233.993 132.139C234.132 132.139 234.25 132.135 234.349 132.126C234.447 132.118 234.527 132.096 234.588 132.059C234.65 132.022 234.693 131.96 234.718 131.874C234.742 131.788 234.754 131.672 234.754 131.524V130.455C234.754 130.299 234.742 130.177 234.718 130.086C234.693 129.996 234.652 129.929 234.595 129.883C234.537 129.839 234.459 129.812 234.361 129.804C234.263 129.795 234.14 129.791 233.993 129.791H229.458V132.139H233.993ZM242.074 128.366V135.186H247.703V128.366H249.632V134.793C249.632 135.497 249.456 135.995 249.103 136.286C248.751 136.577 248.272 136.722 247.666 136.722H241.988C241.374 136.722 240.913 136.577 240.606 136.286C240.299 135.995 240.145 135.497 240.145 134.793V128.366H242.074ZM255.281 133.195C254.207 133.195 253.671 132.651 253.671 131.561V129.951C253.671 129.624 253.724 129.357 253.831 129.152C253.937 128.948 254.083 128.786 254.267 128.667C254.451 128.548 254.672 128.468 254.93 128.427C255.189 128.386 255.465 128.366 255.76 128.366H260.663C260.974 128.366 261.257 128.388 261.511 128.434C261.765 128.478 261.98 128.563 262.156 128.685C262.332 128.808 262.469 128.982 262.568 129.208C262.666 129.433 262.715 129.726 262.715 130.086C262.715 130.127 262.713 130.168 262.709 130.209C262.705 130.25 262.703 130.283 262.703 130.307V130.394L261.093 130.688V129.791H255.416V131.696H261.081C261.646 131.696 262.074 131.811 262.365 132.04C262.656 132.27 262.801 132.683 262.801 133.281V135.1C262.801 135.452 262.746 135.735 262.635 135.948C262.525 136.161 262.369 136.325 262.168 136.44C261.968 136.554 261.726 136.63 261.443 136.667C261.161 136.704 260.847 136.722 260.503 136.722H254.973C254.4 136.722 253.984 136.571 253.726 136.267C253.468 135.964 253.339 135.522 253.339 134.94C253.339 134.899 253.341 134.85 253.345 134.793C253.349 134.736 253.356 134.682 253.364 134.633C253.372 134.576 253.38 134.519 253.388 134.461L254.937 134.203V135.248H261.056V133.195H255.281ZM268.327 133.195C267.254 133.195 266.717 132.651 266.717 131.561V129.951C266.717 129.624 266.771 129.357 266.877 129.152C266.984 128.948 267.129 128.786 267.313 128.667C267.498 128.548 267.719 128.468 267.977 128.427C268.235 128.386 268.511 128.366 268.806 128.366H273.71C274.021 128.366 274.303 128.388 274.557 128.434C274.811 128.478 275.026 128.563 275.203 128.685C275.379 128.808 275.516 128.982 275.614 129.208C275.712 129.433 275.762 129.726 275.762 130.086C275.762 130.127 275.76 130.168 275.756 130.209C275.751 130.25 275.749 130.283 275.749 130.307V130.394L274.14 130.688V129.791H268.462V131.696H274.127C274.693 131.696 275.121 131.811 275.411 132.04C275.702 132.27 275.848 132.683 275.848 133.281V135.1C275.848 135.452 275.792 135.735 275.682 135.948C275.571 136.161 275.416 136.325 275.215 136.44C275.014 136.554 274.772 136.63 274.49 136.667C274.207 136.704 273.894 136.722 273.55 136.722H268.02C267.446 136.722 267.03 136.571 266.773 136.267C266.514 135.964 266.385 135.522 266.385 134.94C266.385 134.899 266.387 134.85 266.391 134.793C266.396 134.736 266.402 134.682 266.41 134.633C266.418 134.576 266.426 134.519 266.435 134.461L267.983 134.203V135.248H274.103V133.195H268.327ZM279.616 128.366H281.545V136.722H279.616V128.366ZM285.953 136.722H284.085L288.829 128.366H290.672L295.501 136.722H293.375L292.368 134.953H286.924L285.953 136.722ZM287.747 133.429H291.557L289.652 130.086L287.747 133.429Z" fill="#5B5B5B" stroke="#5B5B5B" stroke-width="0.288" stroke-miterlimit="22.9256"/>
<path fill-rule="evenodd" clip-rule="evenodd" d="M310.967 19.1525C315.419 19.1525 319.053 22.7882 319.053 27.2417C319.053 31.6984 315.419 35.3353 310.967 35.3353C306.508 35.3353 302.871 31.6984 302.871 27.2417C302.871 22.7882 306.508 19.1525 310.967 19.1525ZM307.856 26.6157H310.898C312.079 26.6157 313.526 26.3449 313.526 24.8197C313.526 23.4847 312.367 23.0797 311.236 23.0797H307.856V26.6157ZM306.439 32.5914V21.8982H311.18C313.187 21.8982 314.99 22.5404 314.99 24.8197C314.99 26.6319 313.62 27.4978 311.976 27.7258C312.349 27.9046 312.634 28.0813 312.829 28.261C314.063 29.3829 314.965 31.186 315.863 32.5914H314.084C313.3 31.3538 312.548 30.0325 311.648 28.8932C311.001 28.0704 310.487 27.8432 309.495 27.8432H307.856V32.5914H306.439ZM310.967 18.2043C315.938 18.2043 320 22.2661 320 27.2417C320 32.2215 315.938 36.2805 310.967 36.2805C305.984 36.2805 301.926 32.2215 301.926 27.2417C301.926 22.2661 305.984 18.2043 310.967 18.2043Z" fill="#004E78"/>
</svg>
